<svg width="21" height="12" viewBox="0 0 21 12" fill="none" xmlns="http://www.w3.org/2000/svg">
<path d="M15.9866 1.98664C16.0506 1.92272 16.1013 1.84684 16.1359 1.76332C16.1705 1.6798 16.1883 1.59029 16.1883 1.49989C16.1883 1.40949 16.1705 1.31998 16.1359 1.23646C16.1013 1.15295 16.0506 1.07706 15.9866 1.01314C15.9227 0.949221 15.8468 0.898516 15.7633 0.863922C15.6798 0.829329 15.5903 0.811523 15.4999 0.811523C15.4095 0.811523 15.32 0.829329 15.2365 0.863922C15.1529 0.898516 15.0771 0.949221 15.0131 1.01314L5.87489 10.1528L1.54914 5.82564C1.48522 5.76172 1.40934 5.71102 1.32582 5.67642C1.2423 5.64183 1.15279 5.62402 1.06239 5.62402C0.879825 5.62402 0.704736 5.69655 0.575642 5.82564C0.446548 5.95474 0.374023 6.12982 0.374023 6.31239C0.374023 6.49496 0.446548 6.67005 0.575642 6.79914L5.38814 11.6116C5.452 11.6757 5.52787 11.7265 5.61139 11.7611C5.69492 11.7958 5.78446 11.8136 5.87489 11.8136C5.96532 11.8136 6.05486 11.7958 6.13839 11.7611C6.22191 11.7265 6.29778 11.6757 6.36164 11.6116L15.9866 1.98664ZM10.2006 11.6116L8.96864 10.3783L9.94077 9.40614L10.6874 10.1528L19.8256 1.01314C19.9547 0.884048 20.1298 0.811523 20.3124 0.811523C20.495 0.811523 20.67 0.884048 20.7991 1.01314C20.9282 1.14224 21.0008 1.31733 21.0008 1.49989C21.0008 1.68246 20.9282 1.85755 20.7991 1.98664L11.1741 11.6116C11.1103 11.6757 11.0344 11.7265 10.9509 11.7611C10.8674 11.7958 10.7778 11.8136 10.6874 11.8136C10.597 11.8136 10.5074 11.7958 10.4239 11.7611C10.3404 11.7265 10.2645 11.6757 10.2006 11.6116Z" fill="#00D23E"/>
</svg>
